<svg xmlns="http://www.w3.org/2000/svg" viewBox="0 0 172 188" width="172" height="188"><style>@import url('https://fonts.googleapis.com/css2?family=Poppins:wght@600;700');
text{font-family:'Poppins',sans-serif;}</style><g transform="translate(4,5)"><g transform="translate(80,107)"><polygon points="-44.17,8.50 -73.61,-8.50 -73.61,-42.50 -44.17,-59.50 -14.72,-42.50 -14.72,-8.50" fill="none" stroke="#F7B341" stroke-width="10.2" stroke-linejoin="round" stroke-linecap="round"/><polygon points="44.17,59.50 14.72,42.50 14.72,8.50 44.17,-8.50 73.61,8.50 73.61,42.50" fill="none" stroke="#F7B341" stroke-width="10.2" stroke-linejoin="round" stroke-linecap="round"/><polygon points="-14.72,59.50 -44.17,42.50 -44.17,8.50 -14.72,-8.50 14.72,8.50 14.72,42.50" fill="#F7B341" stroke="#F7B341" stroke-width="10.2" stroke-linejoin="round" stroke-linecap="round"/><polygon points="14.72,8.50 -14.72,-8.50 -14.72,-42.50 14.72,-59.50 44.17,-42.50 44.17,-8.50" fill="#F7B341" stroke="#F7B341" stroke-width="10.2" stroke-linejoin="round" stroke-linecap="round"/><circle cx="14.7" cy="-49.3" r="17.0" fill="#F7B341" opacity="0.20"/><line x1="14.7" y1="-55.5" x2="-2.1" y2="-99.4" stroke="#F7B341" stroke-width="7.8" stroke-linecap="round"/><line x1="14.7" y1="-55.5" x2="31.6" y2="-99.4" stroke="#F7B341" stroke-width="7.8" stroke-linecap="round"/></g></g></svg>