<svg viewBox="0 0 832.4 200" xmlns="http://www.w3.org/2000/svg">
  <g transform="translate(0 0) scale(1)">
    <rect width="200" height="200" rx="44" fill="#C8FF3D"/>
    <g fill="#0A0A0A">
      <path d="M44 44H76V128H136V140L116 160H44Z"/>
      <rect x="132" y="48" width="24" height="24" rx="5"/>
    </g>
  </g>
  <g fill="#0A0A0A" transform="translate(240 45)">
    <path transform="matrix(0.156028 0 0 -0.156028 0.000 110)" d="M233 132H457V70L387 0H62V702H233Z"/>
    <path transform="matrix(0.156028 0 0 -0.156028 70.525 110)" d="M230 702V282Q230 219 261.0 185.0Q292 151 352 151Q412 151 444.0 185.0Q476 219 476 282V702H647V283Q647 189 607.0 124.0Q567 59 499.5 26.0Q432 -7 349 -7Q266 -7 200.5 25.5Q135 58 97.0 123.5Q59 189 59 283V702Z"/>
    <path transform="matrix(0.156028 0 0 -0.156028 176.624 110)" d="M492 0 349 215 223 0H29L254 357L24 702H223L364 490L488 702H682L459 348L691 0Z"/>
    <path transform="matrix(0.156028 0 0 -0.156028 284.284 110)" d="M339 252H233V0H62V702H339Q423 702 481.0 673.0Q539 644 568.0 593.0Q597 542 597 476Q597 415 569.0 364.5Q541 314 483.0 283.0Q425 252 339 252ZM423 476Q423 518 399.0 541.0Q375 564 326 564H233V388H326Q375 388 399.0 411.0Q423 434 423 476Z"/>
    <path transform="matrix(0.156028 0 0 -0.156028 377.745 110)" d="M33 353Q33 456 81.5 538.0Q130 620 212.5 666.0Q295 712 394 712Q493 712 575.5 666.0Q658 620 705.5 538.0Q753 456 753 353Q753 250 705.0 167.5Q657 85 575.0 39.0Q493 -7 394 -7Q295 -7 212.5 39.0Q130 85 81.5 167.5Q33 250 33 353ZM579 353Q579 446 528.5 501.5Q478 557 394 557Q309 557 258.5 502.0Q208 447 208 353Q208 260 258.5 204.5Q309 149 394 149Q478 149 528.5 205.0Q579 261 579 353Z"/>
    <path transform="matrix(0.156028 0 0 -0.156028 496.482 110)" d="M42 210H224Q228 171 251.0 150.5Q274 130 311 130Q349 130 371.0 147.5Q393 165 393 196Q393 222 375.5 239.0Q358 256 332.5 267.0Q307 278 260 292Q192 313 149.0 334.0Q106 355 75.0 396.0Q44 437 44 503Q44 601 115.0 656.5Q186 712 300 712Q416 712 487.0 656.5Q558 601 563 502H378Q376 536 353.0 555.5Q330 575 294 575Q263 575 244.0 558.5Q225 542 225 511Q225 477 257.0 458.0Q289 439 357 417Q425 394 467.5 373.0Q510 352 541.0 312.0Q572 272 572 209Q572 149 541.5 100.0Q511 51 453.0 22.0Q395 -7 316 -7Q239 -7 178.0 18.0Q117 43 80.5 92.0Q44 141 42 210Z"/>
  </g>
</svg>