<svg xmlns="http://www.w3.org/2000/svg" viewBox="0 0 500 500">
  <g fill="#7C3AED">
    <path d="M272.11,159.67c1.84,0.87,2.05,2.79,2.77,4.38c8.03,17.87,24.63,25.73,41.9,19.83
      c16.8-5.74,26.51-24.02,21.44-42.17c-6.93-24.79-24.76-38.31-49.13-42.88c-23.54-4.41-44.4,1.64-60.26,20.6
      c-17.82,21.32-15.24,48.35,6.18,66.68c8.83,7.56,19.19,12.59,29.63,17.47c22.67,10.6,45.74,20.55,65.64,36.12
      c18.44,14.43,32.48,32.08,36.58,55.86c6.72,39.01-7.99,70.1-36.43,95.85c-0.98,0.89-2.25,1.47-3.45,2.09
      c-0.29,0.15-0.8-0.13-1.65-0.29c0.29-4,3.02-6.89,4.76-10.13c11.34-21.13,17.94-43.5,15.36-67.58
      c-2.41-22.51-14.82-39.3-33.23-51.83c-17.07-11.62-35.93-19.72-54.87-27.67c-17.52-7.35-34.44-15.62-49.03-28.21
      c-24.77-21.37-32.66-57.1-18.69-86.72c15.13-32.07,50.08-52.93,86.41-51.11c35.56,1.78,64.54,15.78,81.15,48.53
      c14.22,28.03,8.56,59.33-17.1,76.32c-17.23,11.41-41.85,10.35-56.79-2.67c-8.76-7.63-11.99-17.72-12.71-28.89
      C270.52,161.91,270.69,160.5,272.11,159.67z"/>
    <path d="M227.21,340.4c-0.73-1.6-1.49-3.19-2.2-4.8c-7.47-16.97-25.1-25.48-41.57-20.08
      c-16.23,5.33-25.82,23.08-22.05,40.82c5.29,24.91,29.55,44.77,56.96,45.92c19.93,0.84,37.96-4,51.93-19.57
      c18.31-20.41,16.31-51.13-4.73-68.7c-8.54-7.13-18.19-12.45-28.29-17.06c-23.59-10.77-47.54-21.04-68-37.37
      c-20.63-16.47-34.91-36.95-37.32-64.2c-2.59-29.28,7.66-53.94,27.13-75.2c3.64-3.97,7.92-7.35,11.98-10.93
      c0.76-0.67,1.71-1.48,3.11-0.8c0.47,2.97-1.83,4.87-3.07,7.12c-10.6,19.27-18.06,39.48-16.89,61.83
      c1.56,29.83,18.04,50.1,42.93,64.62c16.41,9.57,33.9,16.85,51.38,24.16c13.14,5.5,25.52,12.31,37.23,20.53
      c38.66,27.13,41.36,81.7,9.7,115.31c-39.24,41.64-113.26,36.19-146.42-10.36c-17.17-24.11-17.64-55.04-1.15-76.37
      c16.59-21.45,48.87-25.1,68.57-7.47c9.57,8.57,13.56,19.51,12.71,32.03C228.5,340.02,227.85,340.21,227.21,340.4z"/>
  </g>
</svg>
