<?xml version="1.0" encoding="utf-8"?>
<!-- Generator: Adobe Illustrator 26.0.1, SVG Export Plug-In . SVG Version: 6.00 Build 0)  -->
<svg version="1.1" id="Layer_1" xmlns="http://www.w3.org/2000/svg" xmlns:xlink="http://www.w3.org/1999/xlink" x="0px" y="0px"
	 viewBox="0 0 1000 1000" style="enable-background:new 0 0 1000 1000;" xml:space="preserve">
<style type="text/css">
	.st0{fill:#FFFFFF;}
	.st1{fill:#7C3AED;}
	.st2{fill:#231F20;}
	.st3{fill:#7D45F0;}
</style>
<rect x="0.16" y="0.16" class="st1" width="999.68" height="999.68"/>
<g>
	<g>
		<g>
			<path class="st0" d="M164.15,679.46c-14.78-4.04-27.55-7.52-27.55-18.72c0-13.64,13.17-19.85,25.41-19.85
				c14.59,0,26.03,11.35,26.6,26.4l0.03,0.77l2.69,0.27l6.33-21.92l-0.67-0.33c-11.71-5.79-22.14-8.27-34.87-8.27
				c-19.67,0-40.7,7.21-40.7,27.43c0,20.08,19.23,25.9,36.19,31.04c14.59,4.42,28.38,8.59,28.38,20.86
				c0,12.72-10.25,20.32-27.43,20.32c-15.88,0-27.35-10.97-29.93-28.62l-0.1-0.67l-2.39-0.3l-5.69,22.01l0.56,0.34
				c11.26,6.96,23.23,10.2,37.67,10.2c27.7,0,42.95-10.58,42.95-29.8C201.64,689.7,181.72,684.26,164.15,679.46z"/>
			<path class="st0" d="M299.92,726.15l-38.03-88.33l-2.41,0.04l-0.01,0.6l-0.07,0.2c-0.89,2.57-9.33,24.27-18,45.7
				c-4.64,11.88-10.06,25.52-16.57,41.67c-2.66,6.08-5.52,9.6-9.56,11.78l-0.47,0.25v2.45l0.97-0.09c3.6-0.34,6.2-0.47,9.28-0.47
				c2.41,0,4.79,0.14,7.97,0.47l0.98,0.1v-2.59l-0.62-0.19c-3.16-0.98-4.86-2.12-5.33-3.53c-0.45-1.69-0.68-3.05-0.68-4.04
				c0-1.64,0.29-3.16,0.89-4.67c0.71-1.92,1.93-4.98,3.45-8.79c1.7-4.27,3.78-9.47,5.92-15.04h0.57c8.07,0,12.71,7.22,17.19,18.05
				c1.44,3.47,3.14,6.75,5.04,9.72c3.16,5.1,7.97,10.96,17.16,10.96c0,0,0,0,0.01,0c7.28-0.52,12.14-0.59,15.93-0.59
				c5.37,0,9.77,0.17,15.22,0.59l0.96,0.07v-2.55l-0.61-0.2C306.21,736.78,303.54,734.44,299.92,726.15z M249.83,671.09
				c1.54-3.92,2.83-7.22,3.79-9.59l2.3,5.38c3.66,8.55,7.52,17.59,24.79,57.63c0.05,0.21,0.17,0.47,0.39,0.89
				c0.97,2.46,1.48,4.73,1.48,6.55c0,2.01-0.65,5.39-5.04,5.39c-10.77,0-15.29-9.96-19.28-18.75l-0.28-0.63
				c-2.8-6.28-5.98-13.4-11.61-17.1c-2.27-1.36-4.78-2.11-7.46-2.24c0.96-2.48,1.96-4.96,2.98-7.47l1.42-3.53
				C245.66,681.72,247.92,675.96,249.83,671.09z"/>
			<path class="st0" d="M408.98,716.91l-0.6-0.3c-0.27-0.19-0.68-0.48-1.21-0.48h-0.45l-0.27,0.37
				c-11.82,16.36-20.96,20.84-42.53,20.84h-14.75v-85.13c0-8.87,1.93-11.43,8.59-11.43h0.89v-3l-3.58,0.16
				c-12.6,0.57-16.52,0.57-28.82-0.01l-3.38-0.16v3h0.89c1.96,0,3.35,0.23,4.5,0.76c3.34,1.46,3.97,5.3,3.97,11.86v73.58
				c0,7.25-1,10.49-6.93,10.49h-0.89v2.96h80.56l-0.01-1.08l4.03-21.68L408.98,716.91z"/>
			<path class="st0" d="M472.58,637.82c-29.21,0-50.41,21.45-50.41,51c0,29.42,21.77,51.6,50.65,51.6
				c28.34,0,50.53-22.66,50.53-51.6C523.35,659.75,501.52,637.82,472.58,637.82z M506.41,689.06c0,22.27-8.8,48.28-33.59,48.28
				c-24.85,0-33.71-25-33.71-48.4c0-30.08,12.56-48.04,33.59-48.04C503.97,640.9,506.41,677.76,506.41,689.06z"/>
			<path class="st0" d="M601.17,637.82l-0.92-0.03v2.99h0.89c7.36,0,8.47,2.58,8.47,11.43v71.25c-4.65-8.3-10.57-19.08-16.34-29.62
				l-11.05-19.92c-9.61-17.28-17.91-32.19-19.75-35.64l-0.25-0.47h-19.48l0.76,1.33c0.47,0.83,0.94,1.65,1.53,2.7
				c0.93,1.74,2.2,4.05,3.92,7.16v77.02c0,8.86-1.11,11.43-8.47,11.43h-0.89v3l0.92-0.03c9.45-0.36,11.69-0.36,19.95,0l0.93,0.04v-3
				h-0.89c-7.69,0-8.47-2.1-8.47-11.08v-71.94c14.7,26.38,42.07,75.77,47.38,85.51l0.25,0.46h19.36l-0.76-1.33
				c-0.25-0.44-0.5-0.91-0.77-1.41c-0.24-0.45-0.49-0.92-0.76-1.41c-0.61-1.14-1.41-2.57-2.38-4.29l-1.67-2.98v-76.66
				c0-9.36,0.78-11.55,8.47-11.55h0.89v-3l-0.93,0.04C612.86,638.18,610.62,638.18,601.17,637.82z"/>
			<path class="st0" d="M664.6,726.03v-75.12c0-7.01,1-10.13,6.93-10.13h0.89v-3.02l-0.95,0.06c-7.47,0.49-11.53,0.71-15.82,0.71
				c-4.06,0-8.03-0.23-14.87-0.71l-0.95-0.07v3.02h0.89c5.93,0,6.93,3.23,6.93,10.49v74.76c0,8.86-1.11,11.43-8.47,11.43h-0.89v3.03
				l0.96-0.07c0.8-0.06,1.63-0.09,2.51-0.12c0.81-0.03,1.66-0.06,2.56-0.11c4.2-0.16,8.45-0.24,12.63-0.24
				c5.83,0,11.27,0.16,16.18,0.47l0.94,0.06v-3.02h-0.89C666.52,737.46,664.6,734.9,664.6,726.03z"/>
			<path class="st0" d="M772.42,637.82h-80.57v2.96h0.89c5.93,0,6.93,3.23,6.93,10.49v73.58c0,8.9-1.18,12.62-8.47,12.62h-0.89v3.02
				l0.94-0.06c7.96-0.49,12.46-0.59,16.77-0.59c4.34,0,8.92,0.1,17.13,0.59l0.94,0.06v-3.01h-0.89c-6.66,0-8.59-2.57-8.59-11.43
				v-42.36h4.09c20.76,0,24.59,4.08,30.24,15.73l0.24,0.5h2.16v-35.42h-2.25l-0.19,0.63c-3.54,11.52-8.66,15.6-30.31,15.6h-3.97
				V640.9h14.75c21.56,0,30.7,4.48,42.53,20.84l0.27,0.37h0.45c0.52,0,0.94-0.23,1.35-0.45l0.6-0.3l-4.13-22.29V637.82z"/>
			<path class="st0" d="M878.59,637.82c-4.77,0.32-8.97,0.47-12.86,0.47c-4.8,0-8.03-0.13-11.53-0.47l-0.97-0.09v3.17h0.89
				c6.2,0,8.59,0.92,9.53,1.71c1.3,1,2.02,1.97,2.02,2.73c0,0.78-0.45,1.79-1.23,2.77l-11.14,14.33c-1.79,1.58-3.39,2.38-4.74,2.38
				c-3.65,0-6.99-6.08-10.52-12.52l-0.55-1c-4.81-8.62-11.22-13.37-18.07-13.37l-1.47,0c-5.55,0.33-10.14,0.47-14.88,0.47
				c-5.54,0-10.01-0.17-15.45-0.59l-0.84-0.07l-0.32,2.58l0.78,0.18c2.71,0.64,6.81,4.15,11.24,9.64
				c3.35,4.21,7.38,9.41,12.04,15.43c4.31,5.56,9.02,11.66,13.92,17.88l0.98,1.18v40.2c0,8.9-1.19,12.62-8.59,12.62h-0.89v3.01
				l0.94-0.06c8.23-0.49,12.66-0.59,17.13-0.59c4.1,0,8.19,0.19,14.39,0.48l3.32,0.15v-3h-0.89c-6.45,0-8.35-2.57-8.47-11.43v-44.6
				c3.09-3.95,6.34-8.13,9.6-12.34c5.25-6.77,10.68-13.77,15.58-19.91c3.53-4.78,5.78-6.61,10.4-8.43c0.13-0.02,0.28-0.06,0.49-0.12
				l1.13-0.29v-2.59L878.59,637.82z M817.39,648.6c-1.63-2.18-2.43-3.94-2.43-5.39l0-0.29c0.08-1.15,1.36-1.83,3.73-2.02h0.59
				c8.15,0,13.22,7.68,17.7,15.52c2.92,5.54,6.22,10.76,10.46,11.33c0.65,0.22,1.11,0.18,1.6,0.15l-8.31,10.71L817.39,648.6z"/>
		</g>
		<g>
			<g>
				<path class="st0" d="M519.8,339.94c1.65,0.78,1.84,2.5,2.48,3.92c7.19,16,22.06,23.04,37.53,17.76
					c15.05-5.14,23.74-21.51,19.2-37.77c-6.21-22.21-22.18-34.31-44-38.4c-21.08-3.95-39.77,1.47-53.97,18.45
					c-15.96,19.09-13.65,43.3,5.54,59.72c7.91,6.77,17.19,11.27,26.54,15.64c20.3,9.49,40.97,18.41,58.79,32.35
					c16.52,12.92,29.09,28.73,32.76,50.03c6.02,34.94-7.16,62.79-32.63,85.85c-0.88,0.79-2.02,1.32-3.09,1.87
					c-0.26,0.13-0.72-0.11-1.47-0.26c0.26-3.58,2.71-6.17,4.27-9.08c10.15-18.92,16.07-38.96,13.76-60.53
					c-2.16-20.16-13.27-35.2-29.76-46.42c-15.29-10.4-32.18-17.66-49.15-24.78c-15.69-6.58-30.84-13.99-43.91-25.26
					c-22.18-19.14-29.25-51.14-16.74-77.67c13.55-28.72,44.85-47.41,77.4-45.78c31.85,1.6,57.8,14.13,72.68,43.47
					c12.74,25.11,7.66,53.14-15.31,68.35c-15.43,10.22-37.48,9.27-50.87-2.39c-7.84-6.83-10.74-15.87-11.38-25.88
					C518.38,341.94,518.53,340.68,519.8,339.94z"/>
			</g>
			<g>
				<path class="st0" d="M479.59,501.8c-0.66-1.43-1.33-2.86-1.97-4.3c-6.69-15.2-22.48-22.82-37.24-17.98
					c-14.54,4.77-23.13,20.67-19.75,36.56c4.74,22.31,26.47,40.09,51.02,41.13c17.85,0.75,33.99-3.58,46.51-17.53
					c16.4-18.28,14.61-45.79-4.24-61.53c-7.65-6.39-16.29-11.15-25.34-15.28c-21.12-9.65-42.58-18.84-60.9-33.47
					c-18.48-14.75-31.26-33.1-33.43-57.5c-2.32-26.23,6.86-48.31,24.3-67.35c3.26-3.56,7.09-6.59,10.73-9.79
					c0.68-0.6,1.53-1.33,2.79-0.72c0.42,2.66-1.64,4.37-2.75,6.37c-9.49,17.25-16.17,35.36-15.12,55.37
					c1.4,26.72,16.16,44.87,38.45,57.87c14.7,8.57,30.36,15.09,46.02,21.64c11.77,4.92,22.86,11.03,33.35,18.39
					c34.62,24.3,37.04,73.18,8.68,103.27c-35.14,37.29-101.44,32.41-131.14-9.28c-15.38-21.59-15.8-49.3-1.03-68.4
					c14.86-19.21,43.77-22.48,61.41-6.69c8.57,7.68,12.15,17.48,11.38,28.69C480.74,501.46,480.16,501.63,479.59,501.8z"/>
			</g>
		</g>
	</g>
</g>
</svg>
